<?xml version="1.0" encoding="UTF-8"?>
<svg width="42px" height="42px" viewBox="0 0 42 42" version="1.1" xmlns="http://www.w3.org/2000/svg" xmlns:xlink="http://www.w3.org/1999/xlink">
    <title>about-us-1</title>
    <g id="about-us-1" stroke="none" stroke-width="1" fill="none" fill-rule="evenodd">
        <circle id="Oval" fill="#FCCE07" cx="25" cy="25" r="17"></circle>
        <g id="mountain_flag_FILL0_wght300_GRAD0_opsz24" transform="translate(7, 7)" fill="#000000" fill-rule="nonzero">
            <path d="M8.52745928,15.7032519 L10.6813281,17.1514451 L13.5465093,15.7004518 L16.4116906,17.1514451 L18.5202066,15.7486046 L17.0323711,12.7814073 C16.994571,12.7058071 16.9378832,12.6443912 16.8623075,12.5971595 C16.7867319,12.5499278 16.7064282,12.5263119 16.6213964,12.5263119 L10.3667694,12.5263119 C10.2817376,12.5263119 10.2037918,12.5499278 10.1329319,12.5971595 C10.0620721,12.6443912 10.0077544,12.7058071 9.96997887,12.7814073 L8.52745928,15.7032519 Z M3.56227253,25.7895047 L23.4939039,25.7895047 L19.5064355,17.7493941 L16.5760805,19.6906834 L13.5465093,18.1943005 L10.5169382,19.6906834 L7.52708297,17.7125519 L3.56227253,25.7895047 Z M0,28 L7.96918939,11.803689 C8.19591631,11.3596913 8.52513822,11.0007132 8.95685515,10.7267545 C9.38857208,10.4527959 9.85854349,10.3158166 10.3667694,10.3158166 L12.4412801,10.3158166 L12.4412801,0 L21.7934521,0 L20.503975,2.57895416 L21.7934521,5.15787147 L14.6517386,5.15787147 L14.6517386,10.3158166 L16.5930647,10.3158166 C17.1012906,10.3158166 17.5651217,10.4490257 17.9845579,10.715444 C18.4039695,10.9818377 18.7346037,11.3370211 18.9764605,11.7809942 L27.0930187,28 L0,28 Z" id="Shape"></path>
        </g>
    </g>
</svg>