<?xml version="1.0" encoding="UTF-8"?>
<svg width="42px" height="42px" viewBox="0 0 42 42" version="1.1" xmlns="http://www.w3.org/2000/svg" xmlns:xlink="http://www.w3.org/1999/xlink">
    <title>about-us-2</title>
    <g id="about-us-2" stroke="none" stroke-width="1" fill="none" fill-rule="evenodd">
        <circle id="Oval" fill="#FCCE07" cx="25" cy="25" r="17"></circle>
        <g id="rocket_launch_FILL0_wght300_GRAD0_opsz24" transform="translate(7, 7)" fill="#000000" fill-rule="nonzero">
            <path d="M3.98977733,11.6987512 L7.33365441,13.1134772 C7.74677522,12.2872356 8.18717903,11.488771 8.65486584,10.7180833 C9.12255265,9.9473703 9.63797837,9.18885485 10.201143,8.44253695 L7.97089098,8.00992285 C7.89294318,7.99044224 7.81742729,7.99287415 7.74434331,8.01721858 C7.67128466,8.04158836 7.60552175,8.08300683 7.54705456,8.14147402 L3.98977733,11.6987512 Z M9.15169758,14.5456826 L13.4689469,18.8395247 C14.6011026,18.3660115 15.7751581,17.7112702 16.9911134,16.875301 C18.2070687,16.0393317 19.3616436,15.0747498 20.4548381,13.9815553 C22.1599114,12.276482 23.4786529,10.4189456 24.4110626,8.40894618 C25.3434977,6.39892141 25.8048387,4.33091076 25.7952372,2.20476359 C23.6690892,2.19518661 21.599622,2.65652765 19.586684,3.58893737 C17.573746,4.52137243 15.714753,5.84011395 14.009705,7.54516194 C12.9165105,8.63835642 11.9519286,9.79537588 11.1159594,11.0162203 C10.2799901,12.2370395 9.62523617,13.4135269 9.15169758,14.5456826 Z M16.4708745,11.5057563 C15.9564241,10.9913313 15.6991989,10.3658236 15.6991989,9.62923333 C15.6991989,8.8926684 15.9564241,8.26716073 16.4708745,7.75271031 C16.9852996,7.23828522 17.6171404,6.98107267 18.3663968,6.98107267 C19.115628,6.98107267 19.7474687,7.23828522 20.2619192,7.75271031 C20.7763442,8.26716073 21.0335568,8.8926684 21.0335568,9.62923333 C21.0335568,10.3658236 20.7763442,10.9913313 20.2619192,11.5057563 C19.7474687,12.0202068 19.115628,12.277432 18.3663968,12.277432 C17.6171404,12.277432 16.9852996,12.0202068 16.4708745,11.5057563 Z M16.3012488,24.0248521 L19.858564,20.4675749 C19.9170058,20.4091077 19.9584116,20.3433448 19.9827814,20.2702862 C20.0071512,20.1972022 20.0095831,20.1216863 19.9900771,20.0437385 L19.557501,17.8134865 C18.8111578,18.3766511 18.0526424,18.8881756 17.2819547,19.3480601 C16.5112417,19.8079445 15.7127644,20.2444471 14.8865228,20.6575679 L16.3012488,24.0248521 Z M27.8732674,0.117954968 C28.1986874,3.04676064 27.8523175,5.82259659 26.8341576,8.44546284 C25.8159976,11.0683291 24.1406646,13.5460153 21.8081583,15.8785216 L21.6766071,16.0100348 L21.545056,16.1415859 L22.2319567,19.5819035 C22.3235334,20.0398373 22.3030775,20.4851049 22.170589,20.9177064 C22.0380752,21.3502824 21.8091083,21.7292932 21.4836882,22.0547386 L15.5237593,28 L12.6680503,21.2889147 L6.71108529,15.3319497 L1.07998526e-15,12.4616112 L5.92189231,6.51634976 C6.24733768,6.19092972 6.6302496,5.95953089 7.07062808,5.82215328 C7.51100656,5.68475033 7.96016271,5.66184984 8.41809654,5.7534518 L11.887635,6.45494402 C11.9363745,6.40622981 11.977793,6.36237942 12.0118904,6.32339285 C12.0459878,6.28443162 12.0873937,6.24059389 12.1361079,6.19187969 C14.4686141,3.85937343 16.9423992,2.18257107 19.5574631,1.16147261 C22.1725269,0.140399477 24.9444617,-0.207439737 27.8732674,0.117954968 L27.8732674,0.117954968 Z M2.62482951,19.9823707 C3.36529562,19.2419046 4.26799044,18.870215 5.33291396,18.8672843 C6.39783748,18.8643632 7.30053229,19.2331396 8.04099841,19.9736311 C8.78148985,20.7140972 9.14783438,21.616792 9.140032,22.6817155 C9.13222962,23.746639 8.75809538,24.6493338 8.01762926,25.3898 C7.4427864,25.9646428 6.4996484,26.4581307 5.18821528,26.8702635 C3.87678215,27.2823964 2.19415334,27.6121989 0.140328841,27.8596712 C0.387801077,25.8058467 0.720035531,24.1232178 1.1370322,22.8117847 C1.5540542,21.5003769 2.04998664,20.5572389 2.62482951,19.9823707 Z M4.24995377,21.5987553 C3.97714913,21.87156 3.7140848,22.3411847 3.46076078,23.0076295 C3.20743676,23.6740744 3.03497377,24.354148 2.9433718,25.0478505 C3.63709963,24.9562739 4.31718596,24.7852802 4.9836308,24.5348694 C5.6500503,24.2844839 6.11967504,24.0228762 6.39250501,23.7500462 C6.69649383,23.4460574 6.85627796,23.0811822 6.87185738,22.6554205 C6.88743681,22.2296335 6.74323211,21.8647455 6.43924329,21.5607567 C6.13525446,21.2567679 5.77037921,21.1111066 5.34461753,21.1237728 C4.91883051,21.136439 4.55394259,21.2947665 4.24995377,21.5987553 Z" id="Shape"></path>
        </g>
    </g>
</svg>