<?xml version="1.0" encoding="UTF-8"?>
<svg width="42px" height="42px" viewBox="0 0 42 42" version="1.1" xmlns="http://www.w3.org/2000/svg" xmlns:xlink="http://www.w3.org/1999/xlink">
    <title>whyus-1</title>
    <g id="whyus-1" stroke="none" stroke-width="1" fill="none" fill-rule="evenodd">
        <circle id="Oval" fill="#FCCE07" cx="25" cy="25" r="17"></circle>
        <g id="handshake_FILL0_wght300_GRAD0_opsz40" transform="translate(3, 4.8343)" fill="#000000" fill-rule="nonzero">
            <path d="M17.1475813,29.5234583 C17.3306368,29.5234583 17.5231229,29.4821389 17.7250396,29.3995 C17.926984,29.3168889 18.0884979,29.2114722 18.2095813,29.08325 L31.7255813,15.5501667 C32.1130535,15.1626944 32.409359,14.7434167 32.6144979,14.2923333 C32.819609,13.84125 32.9221646,13.3687917 32.9221646,12.8749583 C32.9221646,12.3692361 32.819609,11.8749306 32.6144979,11.3920417 C32.409359,10.909125 32.1130535,10.4767778 31.7255813,10.095 L24.8559563,3.225375 C24.4741785,2.83790278 24.057859,2.54961111 23.6069979,2.3605 C23.1561646,2.17141667 22.6778868,2.076875 22.1721646,2.076875 C21.6783313,2.076875 21.2032063,2.17141667 20.7467896,2.3605 C20.2903452,2.54961111 19.873734,2.83790278 19.4969563,3.225375 L18.4007479,4.32158333 L21.6251229,7.57158333 C21.9691229,7.92127778 22.2509979,8.32938889 22.4707479,8.79591667 C22.6904702,9.26244444 22.8003313,9.75638889 22.8003313,10.27775 C22.8003313,11.2421111 22.453109,12.0668889 21.7586646,12.7520833 C21.0642202,13.43725 20.2383729,13.7798333 19.2811229,13.7798333 C18.7184563,13.7798333 18.2200674,13.6940139 17.7859563,13.522375 C17.3518452,13.3507083 16.9592896,13.0915 16.6082896,12.74475 L13.4873729,9.626 L6.11983126,16.9935 C5.97097015,17.1423889 5.86038682,17.3100278 5.78808126,17.4964167 C5.71580349,17.6828056 5.6796646,17.8725833 5.6796646,18.06575 C5.6796646,18.4378333 5.8021646,18.7460278 6.0471646,18.9903333 C6.29219237,19.2346389 6.59752571,19.3567917 6.9631646,19.3567917 C7.16377571,19.3567917 7.35934515,19.3108611 7.54987293,19.219 C7.74040071,19.1271111 7.89620626,19.020625 8.0172896,18.8995417 L13.5365396,13.3803333 L15.0108313,14.854625 L9.51724793,20.3460833 C9.36838682,20.5020556 9.25781737,20.6740694 9.1855396,20.862125 C9.11323404,21.0501528 9.07708126,21.2413889 9.07708126,21.4358333 C9.07708126,21.7855556 9.20510904,22.0884444 9.4611646,22.3445 C9.71722015,22.6005556 10.020109,22.7285833 10.3698313,22.7285833 C10.5642757,22.7285833 10.7567618,22.6872778 10.9472896,22.6046667 C11.1378174,22.5220278 11.2936368,22.4166111 11.4147479,22.2884167 L17.1262479,16.5854167 L18.6005813,18.05975 L12.9146646,23.7435 C12.7878868,23.8716944 12.6828313,24.0352222 12.5994979,24.2340833 C12.5161646,24.4329167 12.4744979,24.6326389 12.4744979,24.83325 C12.4744979,25.1829722 12.6025257,25.4858611 12.8585813,25.7419167 C13.1146368,25.9979722 13.4175257,26.126 13.7672479,26.126 C13.9616924,26.126 14.1472479,26.0898611 14.3239146,26.0175833 C14.5005535,25.9452778 14.6633035,25.8346944 14.8121646,25.6858333 L20.5237063,19.9828333 L21.9979979,21.4571667 L16.2864563,27.1687083 C16.1375952,27.3175694 16.0270257,27.4913611 15.9547479,27.6900833 C15.8824424,27.8888056 15.8462896,28.0743472 15.8462896,28.2467083 C15.8462896,28.6299028 15.9709285,28.9385 16.2202063,29.1725 C16.4695118,29.4064722 16.7786368,29.5234583 17.1475813,29.5234583 Z M17.1408313,31.6174167 C16.2500535,31.6174167 15.4720396,31.2922639 14.8067896,30.6419583 C14.1415674,29.9916806 13.7929285,29.1804028 13.7608729,28.208125 C12.8164285,28.1533472 12.0274424,27.8225417 11.3939146,27.2157083 C10.760359,26.608875 10.4168729,25.8083056 10.3634563,24.814 C9.37626182,24.7499167 8.57817849,24.4066111 7.96920626,23.7840833 C7.36023404,23.1615833 7.03438682,22.3724167 6.9916646,21.4165833 C6.01874793,21.3596111 5.20785904,21.0225417 4.55899793,20.405375 C3.91013682,19.7882361 3.58570626,18.99925 3.58570626,18.0384167 C3.58570626,17.5811667 3.67556737,17.1268333 3.8552896,16.6754167 C4.03501182,16.2240278 4.28987293,15.8300833 4.61987293,15.4935833 L13.4873729,6.634625 L17.9456229,11.0929167 C18.1194285,11.2724167 18.3228452,11.4170139 18.5558729,11.5267083 C18.7889007,11.636375 19.0334979,11.6912083 19.2896646,11.6912083 C19.6529424,11.6912083 19.9813035,11.5494722 20.2747479,11.266 C20.5681924,10.9825278 20.7149146,10.6506111 20.7149146,10.27025 C20.7149146,10.0644167 20.6657618,9.85840278 20.5674563,9.65220833 C20.4691785,9.44601389 20.3302896,9.25245833 20.1507896,9.07154167 L14.3046646,3.225375 C13.9228868,2.83790278 13.5039007,2.54961111 13.0477063,2.3605 C12.5915118,2.17141667 12.1105674,2.076875 11.6048729,2.076875 C11.1110396,2.076875 10.6412479,2.17141667 10.1954979,2.3605 C9.74974793,2.54961111 9.33367849,2.83658333 8.9472896,3.22141667 L3.25124793,8.92833333 C2.87658126,9.30297222 2.5954146,9.71875 2.40774793,10.1756667 C2.22008126,10.6325833 2.11840071,11.131 2.10270626,11.6709167 C2.07992849,12.12175 2.14581737,12.5620972 2.30037293,12.9919583 C2.45492849,13.4217917 2.65685904,13.8158472 2.9061646,14.174125 L1.36558126,15.7039583 C0.955331263,15.172625 0.624136819,14.5469306 0.37199793,13.826875 C0.119886819,13.1067917 -0.00404373664,12.3742361 0.000100577477,11.6292083 C0.00448404114,10.8322083 0.159761819,10.0706389 0.466039597,9.3445 C0.772289597,8.61836111 1.20640071,7.97431944 1.76837293,7.412375 L7.4296646,1.75104167 C8.02369237,1.16273611 8.67722015,0.723819444 9.39024793,0.434291667 C10.1033035,0.144763889 10.8506368,0 11.6322479,0 C12.4138313,0 13.1575396,0.144763889 13.8633729,0.434291667 C14.5692063,0.723819444 15.2162896,1.16273611 15.8046229,1.75104167 L16.9007896,2.84725 L17.9969979,1.75104167 C18.5909979,1.16273611 19.241859,0.723819444 19.9495813,0.434291667 C20.6572757,0.144763889 21.4019285,0 22.1835396,0 C22.9651229,0 23.7115118,0.144763889 24.4227063,0.434291667 C25.1338729,0.723819444 25.783609,1.16273611 26.3719146,1.75104167 L33.1999146,8.57904167 C33.7882202,9.16734722 34.2379979,9.83769444 34.5492479,10.5900833 C34.8604979,11.3424722 35.0161229,12.10725 35.0161229,12.8844167 C35.0161229,13.6615833 34.8604979,14.4030833 34.5492479,15.1089167 C34.2379979,15.81475 33.7882202,16.4618194 33.1999146,17.050125 L19.6839146,30.5575833 C19.3349146,30.9136944 18.9430535,31.1793611 18.5083313,31.3545833 C18.0736368,31.5298056 17.6178035,31.6174167 17.1408313,31.6174167 Z" id="Shape"></path>
        </g>
    </g>
</svg>