<?xml version="1.0" encoding="UTF-8"?>
<svg width="42px" height="42px" viewBox="0 0 42 42" version="1.1" xmlns="http://www.w3.org/2000/svg" xmlns:xlink="http://www.w3.org/1999/xlink">
    <title>whyus-fast copy</title>
    <g id="whyus-fast-copy" stroke="none" stroke-width="1" fill="none" fill-rule="evenodd">
        <circle id="Oval" fill="#FCCE07" cx="25" cy="25" r="17"></circle>
        <g id="diamond_FILL0_wght300_GRAD0_opsz24" transform="translate(7, 8)" fill="#000000" fill-rule="nonzero">
            <path d="M14,25.2903226 L0,8.32265304 L4.12089385,0 L23.8791062,0 L28,8.32265304 L14,25.2903226 Z M9.99003803,7.28587327 L18.009962,7.28587327 L15.4846473,2.18568912 L12.5153527,2.18568912 L9.99003803,7.28587327 Z M12.9177738,20.5714082 L12.9177738,9.4715624 L3.78506787,9.4715624 L12.9177738,20.5714082 Z M15.0822262,20.5714082 L24.2149321,9.4715624 L15.0822262,9.4715624 L15.0822262,20.5714082 Z M20.415867,7.28587327 L25.0446665,7.28587327 L22.5193519,2.18568912 L17.8905524,2.18568912 L20.415867,7.28587327 Z M2.95533349,7.28587327 L7.584133,7.28587327 L10.1094476,2.18568912 L5.48064812,2.18568912 L2.95533349,7.28587327 Z" id="Shape"></path>
        </g>
    </g>
</svg>