<?xml version="1.0" encoding="UTF-8"?>
<svg width="42px" height="42px" viewBox="0 0 42 42" version="1.1" xmlns="http://www.w3.org/2000/svg" xmlns:xlink="http://www.w3.org/1999/xlink">
    <title>whyus-fast copy 2</title>
    <g id="whyus-fast-copy-2" stroke="none" stroke-width="1" fill="none" fill-rule="evenodd">
        <circle id="Oval" fill="#FCCE07" cx="25" cy="25" r="17"></circle>
        <g id="ads_click_FILL0_wght300_GRAD0_opsz24" transform="translate(7, 7)" fill="#000000" fill-rule="nonzero">
            <path d="M13.2447928,21.9105889 C11.1578263,21.7324457 9.40368381,20.882085 7.98236537,19.3595067 C6.56102256,17.8369284 5.85035115,16.0152753 5.85035115,13.8945474 C5.85035115,11.6600546 6.63243341,9.76073805 8.19659792,8.19659792 C9.76073805,6.63243341 11.6600546,5.85035115 13.8945474,5.85035115 C16.0152753,5.85035115 17.8369284,6.55867023 19.3595067,7.97530838 C20.882085,9.39194654 21.7324457,11.1437611 21.9105889,13.230752 L19.5845624,12.5416537 C19.2684484,11.2253247 18.5875894,10.1466662 17.5419854,9.30567824 C16.4963814,8.46469026 15.2805687,8.04419627 13.8945474,8.04419627 C12.2857009,8.04419627 10.9084307,8.61704315 9.76273692,9.76273692 C8.61704315,10.9084307 8.04419627,12.2857009 8.04419627,13.8945474 C8.04419627,15.2840058 8.4670304,16.502829 9.31269866,17.5510169 C10.1583913,18.5992048 11.2347096,19.2817458 12.5416537,19.5986398 L13.2447928,21.9105889 Z M14.9998981,27.7300063 C14.8156852,27.7693987 14.6314601,27.7890948 14.4472228,27.7890948 L13.8945474,27.7890948 C11.9724633,27.7890948 10.1661796,27.424423 8.47569623,26.6950792 C6.78518851,25.9657354 5.31467837,24.9759291 4.06416582,23.7256603 C2.81365326,22.4753671 1.82366415,21.005113 1.09419849,19.3148978 C0.36473283,17.6247069 0,15.8187401 0,13.8969973 C0,11.9752544 0.364671888,10.1689097 1.09401567,8.47796324 C1.82335944,6.78699237 2.81316573,5.31609221 4.06343452,4.06526276 C5.31372769,2.81440893 6.78398188,1.82415168 8.47419708,1.09449101 C10.1643879,0.364830335 11.9703547,0 13.8920976,0 C15.8138404,0 17.6201851,0.36473283 19.3111316,1.09419849 C21.0021025,1.82366415 22.4730026,2.81365326 23.7238321,4.06416582 C24.9746859,5.31467837 25.9649432,6.78518851 26.6946038,8.47569623 C27.4242645,10.1661796 27.7890948,11.9724633 27.7890948,13.8945474 L27.7890948,14.4402024 C27.7890948,14.6220752 27.7693987,14.8039601 27.7300063,14.9858573 L25.5952497,14.3333238 L25.5952497,13.8945474 C25.5952497,10.6281014 24.4617442,7.8613728 22.1947331,5.59436172 C19.927722,3.32735065 17.1609935,2.19384512 13.8945474,2.19384512 C10.6281014,2.19384512 7.8613728,3.32735065 5.59436172,5.59436172 C3.32735065,7.8613728 2.19384512,10.6281014 2.19384512,13.8945474 C2.19384512,17.1609935 3.32735065,19.927722 5.59436172,22.1947331 C7.8613728,24.4617442 10.6281014,25.5952497 13.8945474,25.5952497 L14.3333238,25.5952497 L14.9998981,27.7300063 Z M25.8005239,28 L19.1682368,21.3536354 L17.5790986,26.1576147 L13.8945474,13.8945474 L26.1576147,17.5790986 L21.3536354,19.1682368 L28,25.8005239 L25.8005239,28 L25.8005239,28 Z" id="Shape"></path>
        </g>
    </g>
</svg>