<?xml version="1.0" encoding="UTF-8"?>
<svg width="42px" height="42px" viewBox="0 0 42 42" version="1.1" xmlns="http://www.w3.org/2000/svg" xmlns:xlink="http://www.w3.org/1999/xlink">
    <title>whyus-fast copy 3</title>
    <g id="whyus-fast-copy-3" stroke="none" stroke-width="1" fill="none" fill-rule="evenodd">
        <circle id="Oval" fill="#FCCE07" cx="25" cy="25" r="17"></circle>
        <g id="devices_FILL0_wght300_GRAD0_opsz24" transform="translate(7, 10)" fill="#000000" fill-rule="nonzero">
            <path d="M0,22.0940843 L0,18.7800342 L2.94588772,18.7800342 L2.94588772,2.66264062 C2.94588772,1.93041568 3.20661106,1.30359214 3.72805774,0.782170015 C4.24947987,0.260723338 4.8763034,0 5.60852834,0 L26.5129159,0 L26.5129159,2.20937897 L5.60852834,2.20937897 C5.47633163,2.20937897 5.36773885,2.2518734 5.28274999,2.33686226 C5.19776113,2.42185112 5.15526669,2.53044391 5.15526669,2.66264062 L5.15526669,18.7800342 L13.6105168,18.7800342 L13.6105168,22.0940843 L0,22.0940843 Z M18.4542559,22.0940843 C18.0770595,22.0940843 17.7608798,21.9664905 17.5057169,21.711303 C17.2505293,21.45614 17.1229356,21.1399604 17.1229356,20.762764 L17.1229356,6.76983411 C17.1229356,6.39263774 17.2505293,6.07645806 17.5057169,5.82129509 C17.7608798,5.56613211 18.0770595,5.43855062 18.4542559,5.43855062 L26.6687165,5.43855062 C27.0459129,5.43855062 27.3620926,5.56613211 27.6172555,5.82129509 C27.8724185,6.07645806 28,6.39263774 28,6.76983411 L28,20.762764 C28,21.1399604 27.8724185,21.45614 27.6172555,21.711303 C27.3620926,21.9664905 27.0459129,22.0940843 26.6687165,22.0940843 L18.4542559,22.0940843 Z M19.3323145,18.7800342 L25.7906579,18.7800342 L25.7906579,7.64789277 L19.3323145,7.64789277 L19.3323145,18.7800342 L19.3323145,18.7800342 Z M19.3323145,18.8352696 L25.7906579,18.8352696 L19.3323145,18.8352696 Z" id="Shape"></path>
        </g>
    </g>
</svg>