<?xml version="1.0" encoding="UTF-8"?>
<svg width="42px" height="42px" viewBox="0 0 42 42" version="1.1" xmlns="http://www.w3.org/2000/svg" xmlns:xlink="http://www.w3.org/1999/xlink">
    <title>whyus-fast copy 4</title>
    <g id="whyus-fast-copy-4" stroke="none" stroke-width="1" fill="none" fill-rule="evenodd">
        <circle id="Oval" fill="#FCCE07" cx="25" cy="25" r="17"></circle>
        <g id="search_FILL0_wght300_GRAD0_opsz24" transform="translate(7, 7)" fill="#000000" fill-rule="nonzero">
            <path d="M26.2836976,28 L16.0545711,17.7708735 C15.2402507,18.4432036 14.3037822,18.9693767 13.2451657,19.3493929 C12.1865492,19.7294091 11.0913968,19.9194172 9.95970859,19.9194172 C7.17609,19.9194172 4.82023392,18.9556147 2.89214035,17.0280097 C0.964046785,15.1004047 0,12.7451594 0,9.9622737 C0,7.17936086 0.963802489,4.82324691 2.89140747,2.89393186 C4.81901244,0.964643953 7.17427135,0 9.9571842,0 C12.7400699,0 15.0961703,0.964046785 17.0254853,2.89214035 C18.9548004,4.82023392 19.9194579,7.17609 19.9194579,9.95970859 C19.9194579,11.122721 19.7242246,12.2335355 19.3337579,13.292152 C18.9432913,14.3507685 18.4223298,15.2715749 17.7708735,16.0545711 L28,26.2836976 L26.2836976,28 Z M9.95970859,17.4765374 C12.058158,17.4765374 13.8355751,16.7483449 15.29196,15.29196 C16.7483449,13.8355751 17.4765374,12.058158 17.4765374,9.95970859 C17.4765374,7.86125919 16.7483449,6.08384204 15.29196,4.62745714 C13.8355751,3.17107224 12.058158,2.44287979 9.95970859,2.44287979 C7.86125919,2.44287979 6.08384204,3.17107224 4.62745714,4.62745714 C3.17109938,6.08384204 2.4429205,7.86125919 2.4429205,9.95970859 C2.4429205,12.058158 3.17109938,13.8355751 4.62745714,15.29196 C6.08384204,16.7483449 7.86125919,17.4765374 9.95970859,17.4765374 Z" id="Shape"></path>
        </g>
    </g>
</svg>