<?xml version="1.0" encoding="UTF-8"?>
<svg width="42px" height="42px" viewBox="0 0 42 42" version="1.1" xmlns="http://www.w3.org/2000/svg" xmlns:xlink="http://www.w3.org/1999/xlink">
    <title>whyus-fast copy 5</title>
    <g id="whyus-fast-copy-5" stroke="none" stroke-width="1" fill="none" fill-rule="evenodd">
        <circle id="Oval" fill="#FCCE07" cx="25" cy="25" r="17"></circle>
        <g id="shopping_cart_FILL0_wght300_GRAD0_opsz24" transform="translate(7, 7)" fill="#000000" fill-rule="nonzero">
            <path d="M8.43242807,28.7964624 C7.70775473,28.7964624 7.09158477,28.5426415 6.5839182,28.0349998 C6.07625162,27.5273333 5.82241833,26.9111509 5.82241833,26.1864527 C5.82241833,25.4617793 6.07625162,24.8456094 6.5839182,24.3379428 C7.09158477,23.8302762 7.70775473,23.5764429 8.43242807,23.5764429 C9.15712627,23.5764429 9.77330866,23.8302762 10.2809752,24.3379428 C10.7886418,24.8456094 11.0424751,25.4617793 11.0424751,26.1864527 C11.0424751,26.9111509 10.7886418,27.5273333 10.2809752,28.0349998 C9.77330866,28.5426415 9.15712627,28.7964624 8.43242807,28.7964624 Z M22.8880617,28.7964624 C22.1633635,28.7964624 21.5471811,28.5426415 21.0395145,28.0349998 C20.5318479,27.5273333 20.2780146,26.9111509 20.2780146,26.1864527 C20.2780146,25.4617793 20.5318479,24.8456094 21.0395145,24.3379428 C21.5471811,23.8302762 22.1633635,23.5764429 22.8880617,23.5764429 C23.612735,23.5764429 24.228905,23.8302762 24.7365715,24.3379428 C25.2442381,24.8456094 25.4980714,25.4617793 25.4980714,26.1864527 C25.4980714,26.9111509 25.2442381,27.5273333 24.7365715,28.0349998 C24.228905,28.5426415 23.612735,28.7964624 22.8880617,28.7964624 Z M6.73444334,5.22001948 L10.5147236,13.1362548 L20.6824228,13.1362548 C20.7684798,13.1362548 20.8449666,13.1147406 20.9118832,13.0717121 C20.9788247,13.0286836 21.036196,12.968926 21.0839972,12.8924391 L25.0850874,5.62159386 C25.1424587,5.51642139 25.1472438,5.42320543 25.0994427,5.34194596 C25.0516415,5.26066164 24.9703696,5.22001948 24.855627,5.22001948 L6.73444334,5.22001948 L6.73444334,5.22001948 Z M5.6617513,2.98294817 L26.3699763,2.98294817 C26.9799318,2.98294817 27.4412266,3.24251114 27.7538605,3.76163706 C28.0664944,4.28078784 28.0813095,4.81092568 27.7983059,5.35205057 L23.0199809,14.0081224 C22.7752082,14.4383576 22.4515748,14.7734628 22.0490807,15.0134379 C21.6465866,15.2533883 21.2053768,15.3733634 20.7254513,15.3733634 L9.84356864,15.3733634 L8.11691067,18.5283883 C8.04042387,18.6431309 8.03803754,18.7674313 8.10975169,18.9012894 C8.18146584,19.0351475 8.28902463,19.1020766 8.43242807,19.1020766 L25.4980714,19.1020766 L25.4980714,21.3391852 L8.43242807,21.3391852 C7.4381493,21.3391852 6.69099227,20.9104042 6.19095697,20.0528422 C5.69094654,19.1952553 5.67326036,18.3391101 6.13789845,17.4844067 L8.26613079,13.6582269 L2.83950745,2.23710859 L0,2.23710859 L0,0 L4.24486862,0 L5.6617513,2.98291089 L5.6617513,2.98294817 Z M10.5147236,13.1921844 L20.9549117,13.1921844 L10.5147236,13.1921844 Z" id="Shape"></path>
        </g>
    </g>
</svg>