<?xml version="1.0" encoding="UTF-8"?>
<svg width="42px" height="42px" viewBox="0 0 42 42" version="1.1" xmlns="http://www.w3.org/2000/svg" xmlns:xlink="http://www.w3.org/1999/xlink">
    <title>whyus-fast copy 6</title>
    <g id="whyus-fast-copy-6" stroke="none" stroke-width="1" fill="none" fill-rule="evenodd">
        <circle id="Oval" fill="#FCCE07" cx="25" cy="25" r="17"></circle>
        <g id="history_edu_FILL0_wght300_GRAD0_opsz24" transform="translate(6, 9)" fill="#000000" fill-rule="nonzero">
            <path d="M10.0824899,23.8762209 C9.41908619,23.8762209 8.85118582,23.640009 8.37878877,23.1675852 C7.90636492,22.6951881 7.670153,22.1272877 7.670153,21.463884 L7.670153,17.4433359 L12.309315,17.4433359 L12.309315,13.0205642 C11.3299435,13.1010035 10.3613875,12.9809074 9.40364698,12.6602757 C8.44590646,12.3396707 7.61858174,11.8226581 6.9216728,11.1092378 L6.9216728,9.09273178 L4.85567284,9.09273178 L0,4.23709914 C0.944338419,3.19999142 2.06495459,2.44999678 3.36184852,1.98711523 C4.65874245,1.52423367 5.97935809,1.29279289 7.32369544,1.29279289 C8.20086256,1.29279289 9.05366467,1.39278592 9.88210177,1.59277198 C10.7105657,1.79278485 11.5196367,2.12269082 12.309315,2.58248989 L12.309315,0 L30,0 L30,19.8556326 C30,20.9793447 29.61083,21.9303708 28.8324899,22.7087108 C28.054123,23.4870509 27.103097,23.8762209 25.9794117,23.8762209 L10.0824899,23.8762209 Z M14.7216519,17.4433359 L24.3711603,17.4433359 L24.3711603,19.8556326 C24.3711603,20.3113039 24.5252844,20.6932636 24.8335326,21.0015118 C25.1417808,21.3097599 25.5237405,21.463884 25.9794117,21.463884 C26.4350829,21.463884 26.8170426,21.3097599 27.1252908,21.0015118 C27.433539,20.6932636 27.5876631,20.3113039 27.5876631,19.8556326 L27.5876631,2.4123369 L14.7216519,2.4123369 L14.7216519,4.18145364 L23.9690572,13.428859 L23.9690572,15.1236745 L22.2742417,15.1236745 L17.5360918,10.3855247 L16.920614,11.0010025 C16.5762874,11.3453291 16.2247371,11.6442896 15.865963,11.8978841 C15.5072157,12.1515053 15.1257787,12.3587285 14.7216519,12.5195537 L14.7216519,17.4433359 Z M5.88246095,6.68043509 L9.33396949,6.68043509 L9.33396949,9.98350202 C9.76902829,10.2597996 10.191717,10.4484609 10.6020355,10.5494859 C11.0123541,10.6505377 11.4226994,10.7010636 11.8330715,10.7010636 C12.5072505,10.7010636 13.118051,10.5917829 13.665473,10.3732215 C14.212895,10.1546602 14.7381633,9.79382217 15.2412779,9.29070752 L15.8412763,8.69070913 L13.3113762,6.16076885 C12.4925886,5.3422225 11.5750008,4.72829933 10.5586127,4.31899935 C9.54222464,3.90972617 8.46391888,3.70508958 7.32369544,3.70508958 C6.6638835,3.70508958 6.02830254,3.7762279 5.41695258,3.91850454 C4.80560261,4.06078118 4.23291769,4.25357032 3.69889781,4.49687195 L5.88246095,6.68043509 Z M21.9588234,19.8556326 L10.0824899,19.8556326 L10.0824899,21.463884 L22.3238161,21.463884 C22.1918322,21.2329659 22.0980042,20.9818241 22.0423319,20.7104585 C21.9866596,20.4390928 21.9588234,20.1541509 21.9588234,19.8556326 Z M10.1427993,21.463884 L10.1427993,19.8556326 L10.1427993,21.463884 Z" id="Shape"></path>
        </g>
    </g>
</svg>