<?xml version="1.0" encoding="UTF-8"?>
<svg width="342px" height="100px" viewBox="0 0 342 100" version="1.1" xmlns="http://www.w3.org/2000/svg" xmlns:xlink="http://www.w3.org/1999/xlink">
    <title>Group 2 Copy 3</title>
    <g id="Page-1" stroke="none" stroke-width="1" fill="none" fill-rule="evenodd">
        <g id="Group-2-Copy-3" fill-rule="nonzero">
            <path d="M55.0896013,0.0117746385 C70.8560391,0.260184187 83.4882465,6.83112717 92.3498489,19.792661 C97.0711346,26.6979794 99.6219258,34.1117909 100.053441,41.886232 C99.6267049,41.8658439 99.1982785,41.8553075 98.767391,41.8553075 C98.3385352,41.8553075 97.9121173,41.8657448 97.4883775,41.8863792 C97.028443,35.209571 95.1007633,28.9075533 91.5501267,23.0764311 C85.8363669,13.6879113 77.7302468,7.31093192 67.2521846,4.11903936 C58.2578624,1.37972859 49.256734,1.65876397 40.4019378,4.95274264 C30.2982137,8.71291457 22.634493,15.3349006 17.5230772,24.811895 C12.1428186,34.7823057 11.1389121,45.3278014 13.9668658,56.2305986 C15.2225998,61.0762862 17.3529236,65.5578667 20.5007662,69.7399946 C27.7470432,59.2568848 34.9509709,48.8342705 42.146832,38.4247635 L52.9388591,22.81441 C49.2056879,21.4294417 47.0957826,18.8943032 46.6533831,14.9401676 C46.510454,13.6470768 46.7724906,13.2557467 48.0962861,13.2693582 C54.1979962,13.327207 60.3065124,13.2251209 66.4082225,13.3169984 C71.0023712,13.3850558 75.1847481,14.6066863 78.2202893,18.3940812 C79.0098023,19.3843165 79.7142384,20.4324007 79.3637219,21.7663259 C79.135716,22.630655 79.4045587,23.2023373 79.928632,23.8727028 C82.6612997,27.3708537 81.9092205,32.9992015 78.1522278,35.9903247 C78.114794,35.2587075 78.114794,34.7652913 78.0569418,34.275278 C77.9310281,33.2442082 77.7915021,32.3220303 76.3758237,33.2680283 C75.4740093,33.8703364 74.3543982,34.0302713 73.2858333,33.8703364 C71.9926655,33.6797756 71.7646596,34.2616665 71.9416194,35.3471822 C72.4316619,38.3791398 72.3261667,41.4008888 71.9450225,44.4498608 C71.0091774,51.9259674 67.8136917,58.3437812 63.1344662,64.1456754 C59.0575846,69.1989382 53.8134489,72.9114699 48.7973191,76.8894256 C48.0282246,77.4985394 47.5381821,78.0906388 47.5892282,79.1217086 C47.6368712,80.0779152 47.5586005,81.0409276 47.4803298,81.9971342 C47.4156715,82.7355571 47.579019,83.0452183 48.4297872,83.1643188 C50.8936122,83.5114116 52.84017,84.841934 54.23543,86.8632391 C54.654008,87.46895 55.0827952,87.5029787 55.6443022,87.4859644 C58.4075976,87.4008926 61.1606838,87.1729003 63.8525146,86.5535778 C68.6105517,85.4570002 72.9471308,83.7614287 76.8494951,81.4532278 C77.2766009,82.1330044 77.7348001,82.7921711 78.2218576,83.4280688 C65.7097349,90.9229903 52.3019494,92.0332911 38.3124509,86.6624697 C35.9983612,85.7743205 33.7761544,84.6854019 31.6968767,83.3412681 C30.9005576,82.8274346 30.451352,82.9703552 29.9136664,83.6713465 C28.5796618,85.4136162 27.1673864,87.0980371 25.8197695,88.8300982 C23.3219138,92.0390051 20.1842804,93.9446126 15.9882912,93.6791887 C14.9571601,93.6145342 14.2118871,93.8935696 13.4972417,94.7272728 C10.3153684,98.4398046 6.10236385,99.8656073 1.33806149,99.9302619 C0.916080425,99.9370676 0.347767214,100.171866 0.0823275115,99.7397011 C-0.103626126,99.4356303 0.0563877604,99.1864048 0.25588052,98.9576709 L0.391361028,98.8078404 C0.458662255,98.7340661 0.522782403,98.6617204 0.57237004,98.5895309 C4.72071617,92.5562415 8.88948073,86.5365635 13.0582453,80.5134827 C14.7563788,78.0566101 16.4272877,75.5793204 18.1832734,73.1632823 C18.8400665,72.2649245 18.8706942,71.6694222 18.1832734,70.6996041 C12.6941165,62.975088 9.92061189,54.3113796 10.0022856,44.8582053 C10.1009748,33.2782369 13.9906873,23.0662224 21.8790108,14.5046002 C29.2160364,6.54188318 38.271614,1.78126731 49.0287281,0.321435856 C49.7535827,0.222752611 50.4750342,0.0526090848 51.1998888,0.0253861206 C52.4964596,-0.0222540668 53.7930305,0.0117746385 55.0896013,0.0117746385 Z M49.3520201,16.1175608 C50.5158711,20.0648906 53.6807291,20.7488676 57.3458388,20.7352561 C46.6601892,36.1978998 36.1276779,51.435954 25.520299,66.7829001 C25.8980402,66.7829001 26.1328522,66.8305403 26.3404397,66.7760944 C35.7363245,64.3362362 44.3869364,60.3310576 51.8600849,54.0969988 C55.0045245,51.4699827 57.3458388,48.1419754 58.0604842,43.9224159 C58.1489641,43.3983738 57.8290752,42.5578648 58.4212099,42.42175 C59.1188399,42.2618151 59.8164699,42.8811375 60.2588694,43.4017767 C60.7693304,44.0006819 60.3881862,44.8003565 60.2044202,45.4877363 C59.0882122,49.7072958 56.655015,53.0693319 53.4561262,55.9617718 C48.8653806,60.1132739 43.389836,62.8185559 37.8700514,65.4149461 C33.9633234,67.2524962 29.893248,68.7497593 25.5985697,69.362276 C24.1080237,69.5732539 23.192597,70.1109075 22.3588441,71.332538 C18.0063136,77.7095174 13.5653032,84.025245 9.16853273,90.3715986 C7.6779867,92.5188099 6.22487448,94.6898413 4.55736866,97.1365052 C7.73583895,96.5205856 10.0839594,95.1152001 11.7820929,92.8999314 C12.8948978,91.4469057 14.1268103,91.0759928 15.7943161,91.2393306 C19.0510571,91.5557975 21.5795404,90.2252751 23.5567259,87.679928 C24.7988475,86.077176 26.1056276,84.525467 27.38178,82.9533408 C30.4955919,79.1183057 33.6128069,75.2832707 36.8423233,71.3087179 C38.782075,75.2322276 40.6163314,79.0026082 42.5220523,82.73896 L42.5118431,82.7355571 C42.7364459,83.1745274 42.5799046,84.2021943 43.6552757,83.8789216 C44.4992378,83.6237063 45.1866586,83.3821025 45.0777602,82.1979036 C44.9620557,80.9150214 45.1968678,79.6015134 45.1424186,78.3084226 C45.0947756,77.1344322 45.5031444,76.3211462 46.4253772,75.5997376 L49.0076053,73.5858931 C51.1572462,71.9055397 53.2942372,70.2110491 55.3652503,68.4366952 C65.9351953,59.3816567 71.4379646,48.2338529 69.3246562,34.0166598 C69.1953394,33.1421221 69.3825084,32.4105049 69.9133878,31.6618734 C72.1628191,28.4938009 74.3271736,25.2610739 76.5732019,22.0895986 C77.0870659,21.3681901 77.0938721,20.9019968 76.528962,20.1839911 C74.3203675,17.3800258 71.3835154,15.9950575 67.9123808,15.9167915 C62.1543811,15.7874824 56.3895753,15.8385255 50.6247694,15.8317197 C50.2164006,15.8317197 49.7331642,15.6343532 49.3520201,16.1175608 Z M195.411945,51.5956841 L195.411945,60.5710954 L204.959607,60.5710954 L204.959607,63.6010113 L195.411945,63.6010113 L195.411945,77.7215628 C195.411945,81.4184413 195.678746,83.8385629 196.212348,84.9819274 C196.74595,86.1252919 198.003725,86.6969741 199.985675,86.6969741 L205.245465,86.2967965 L205.474152,89.212376 C202.9586,89.5934975 201.033822,89.7840582 199.699817,89.7840582 C196.803121,89.7840582 194.792586,89.0694554 193.66821,87.6402498 C192.543835,86.2110442 191.981647,83.4764974 191.981647,79.4366096 L191.981647,63.6010113 L187.750947,63.6010113 L187.750947,60.5710954 L191.981647,60.5710954 L191.981647,51.5956841 L195.411945,51.5956841 Z M330.908704,60.0565813 C333.195569,60.0565813 336.054151,60.3043103 339.484448,60.7997683 L341.028082,61.0284412 L340.913739,64.0583571 C336.835496,63.4485627 333.538599,63.1436655 331.023047,63.1436655 C326.525546,63.1436655 324.276795,64.7634318 324.276795,68.0029646 C324.276795,69.4893384 324.772283,70.5374226 325.763258,71.147217 C326.754232,71.7570113 328.993455,72.3572777 332.480924,72.948016 C335.968393,73.5387544 338.426773,74.3486375 339.856064,75.3776656 C341.285355,76.4066936 342,78.3789974 342,81.2945769 C342,84.2101563 341.066197,86.3444367 339.19859,87.697418 C337.330984,89.0503994 334.586746,89.72689 330.965876,89.72689 C328.869583,89.72689 326.163459,89.460105 322.847505,88.9265349 L321.189527,88.697862 L321.418214,85.6679461 C325.687029,86.3158526 328.964869,86.6398059 331.251734,86.6398059 C333.538599,86.6398059 335.320448,86.2396283 336.597281,85.4392732 C337.874114,84.638918 338.512531,83.2859367 338.512531,81.3803292 C338.512531,79.4747217 337.988457,78.2074927 336.940311,77.5786422 C335.892164,76.9497918 333.643414,76.3685815 330.194059,75.8350114 C326.744704,75.3014413 324.31491,74.5391983 322.904676,73.5482824 C321.494443,72.5573665 320.789326,70.6898712 320.789326,67.9457964 C320.789326,65.2017216 321.761244,63.2008337 323.705079,61.9431328 C325.648914,60.6854318 328.050123,60.0565813 330.908704,60.0565813 Z M291.460281,59.9994131 C295.233608,59.9994131 298.054075,61.0760813 299.921682,63.2294178 C301.789288,65.3827543 302.723091,68.8223758 302.723091,73.5482824 L302.608748,76.2923572 L283.170394,76.2923572 C283.170394,79.798675 283.770697,82.3998292 284.971301,84.0958199 C286.171905,85.7918105 288.230084,86.6398059 291.145837,86.6398059 C294.06159,86.6398059 296.967814,86.5254694 299.86451,86.2967965 L301.579659,86.1252919 L301.694002,88.9265349 C297.387073,89.460105 293.747146,89.72689 290.774221,89.72689 C286.657864,89.6887779 283.780225,88.4691891 282.141305,86.0681236 C280.502385,83.6670582 279.682925,79.9701796 279.682925,74.977488 C279.682925,64.9921047 283.60871,59.9994131 291.460281,59.9994131 Z M172.486122,60.0565813 C174.772987,60.0565813 177.631569,60.3043103 181.061866,60.7997683 L182.6055,61.0284412 L182.491157,64.0583571 C178.412914,63.4485627 175.116017,63.1436655 172.600465,63.1436655 C168.102964,63.1436655 165.854213,64.7634318 165.854213,68.0029646 C165.854213,69.4893384 166.349701,70.5374226 167.340675,71.147217 C168.33165,71.7570113 170.570872,72.3572777 174.058342,72.948016 C177.545811,73.5387544 180.004191,74.3486375 181.433482,75.3776656 C182.862773,76.4066936 183.577418,78.3789974 183.577418,81.2945769 C183.577418,84.2101563 182.643615,86.3444367 180.776008,87.697418 C178.908402,89.0503994 176.164163,89.72689 172.543294,89.72689 C170.447001,89.72689 167.740877,89.460105 164.424922,88.9265349 L162.766945,88.697862 L162.995632,85.6679461 C167.264447,86.3158526 170.542287,86.6398059 172.829152,86.6398059 C175.116017,86.6398059 176.897866,86.2396283 178.174699,85.4392732 C179.451532,84.638918 180.089949,83.2859367 180.089949,81.3803292 C180.089949,79.4747217 179.565875,78.2074927 178.517729,77.5786422 C177.469582,76.9497918 175.220832,76.3685815 171.771477,75.8350114 C168.322122,75.3014413 165.892328,74.5391983 164.482094,73.5482824 C163.071861,72.5573665 162.366744,70.6898712 162.366744,67.9457964 C162.366744,65.2017216 163.338661,63.2008337 165.282497,61.9431328 C167.226332,60.6854318 169.627541,60.0565813 172.486122,60.0565813 Z M145.672628,59.9994131 C149.445956,59.9994131 152.266423,61.0760813 154.134029,63.2294178 C156.001636,65.3827543 156.935439,68.8223758 156.935439,73.5482824 L156.821096,76.2923572 L137.382742,76.2923572 C137.382742,79.798675 137.983044,82.3998292 139.183649,84.0958199 C140.384253,85.7918105 142.442431,86.6398059 145.358184,86.6398059 C148.273937,86.6398059 151.180162,86.5254694 154.076858,86.2967965 L155.792007,86.1252919 L155.90635,88.9265349 C151.59942,89.460105 147.959493,89.72689 144.986569,89.72689 C140.870212,89.6887779 137.992573,88.4691891 136.353653,86.0681236 C134.714733,83.6670582 133.895273,79.9701796 133.895273,74.977488 C133.895273,64.9921047 137.821058,59.9994131 145.672628,59.9994131 Z M99.3636094,48.8516093 C102.527106,48.8516093 106.109862,49.2517868 110.111876,50.052142 L109.940361,53.1392261 C105.976461,52.4150953 102.793907,52.0530299 100.392699,52.0530299 C97.9914903,52.0530299 96.1334124,52.3102869 94.818465,52.8248009 C93.5035175,53.3393149 92.4363138,54.0253336 91.6168538,54.882857 C90.7973938,55.7403804 90.1780345,56.931385 89.7587758,58.455871 C88.9964875,61.0474972 88.6153433,64.28703 88.6153433,68.1744693 C88.6153433,72.0619085 88.7487437,74.96796 89.0155447,76.8926235 C89.2823456,78.8172871 89.7968903,80.560918 90.5591786,82.1235161 C91.321467,83.6861143 92.4458424,84.8104227 93.9323047,85.4964414 C95.4187671,86.1824601 97.4769457,86.5254694 100.106841,86.5254694 C102.736735,86.5254694 106.014576,86.163404 109.940361,85.4392732 L110.111876,88.5263573 C106.18609,89.3267124 102.832022,89.72689 100.049669,89.72689 C97.2673164,89.72689 95.0280943,89.4315209 93.3320026,88.8407825 C91.635911,88.2500442 90.2542633,87.421105 89.1870596,86.3539648 C88.1198558,85.2868246 87.2813386,83.8957311 86.6715079,82.1806843 C85.5280754,79.0554881 84.9563591,74.8059833 84.9563591,69.4321702 C84.9563591,60.8188243 86.3284781,55.1210579 89.0727163,52.338871 C91.321467,50.0140298 94.7517647,48.8516093 99.3636094,48.8516093 Z M257.100132,60.5710954 L264.646787,72.3477497 L272.193442,60.5710954 L276.023941,60.5710954 L266.704966,74.8059833 L275.966769,89.1552078 L272.193442,89.1552078 L264.646787,77.4357217 L257.100132,89.1552078 L253.269633,89.1552078 L262.474265,74.8631516 L253.269633,60.5710954 L257.100132,60.5710954 Z M130.693662,59.9994131 L130.693662,63.4295066 C129.054742,63.7725159 127.339593,64.296558 125.548215,65.0016328 C123.756837,65.7067076 122.365661,66.32603 121.374686,66.8596001 L119.888224,67.7171235 L119.888224,89.1552078 L116.515098,89.1552078 L116.515098,60.5710954 L119.888224,60.5710954 L119.888224,64.6872075 C121.298457,63.6962916 123.023135,62.7434879 125.062256,61.8287963 C127.101378,60.9141047 128.978513,60.3043103 130.693662,59.9994131 Z M313.471357,47.8797494 L313.471357,89.1552078 L310.098231,89.1552078 L310.098231,47.8797494 L313.471357,47.8797494 Z M247.609642,60.5710954 L247.609642,89.1552078 L244.236516,89.1552078 L244.236516,60.5710954 L247.609642,60.5710954 Z M225.541393,49.4232915 C229.772094,49.4232915 232.887947,50.4523196 234.888954,52.5103757 C236.889961,54.5684317 237.890465,57.7317402 237.890465,62.000301 C237.890465,70.8804319 233.774108,75.3204974 225.541393,75.3204974 L214.56444,75.3204974 L214.56444,89.1552078 L211.0198,89.1552078 L211.0198,49.4232915 L225.541393,49.4232915 Z M44.6864068,86.1180104 C46.9834812,86.8292104 48.9470544,87.1660945 51.4074762,87.2035261 C49.2227033,85.5088966 47.2897578,85.0086746 44.6864068,86.1180104 Z M36.3080408,75.8379386 C35.1748175,77.2501298 34.2900185,78.5636379 33.1908258,79.6559593 C32.0405871,80.7993238 32.6565434,81.187251 33.6978837,81.7453218 C35.9234936,82.9363265 38.2001495,84.025245 40.9464295,85.0835378 C39.3299697,81.8644223 37.8666483,78.9481622 36.3080408,75.8379386 Z M145.701214,62.9721608 C142.976033,62.9721608 140.908326,63.8011001 139.498092,65.4589786 C138.087859,67.1168571 137.382742,69.7751796 137.382742,73.4339459 L153.505141,73.4339459 C153.505141,69.6608431 152.885782,66.9739365 151.647064,65.3732262 C150.408345,63.7725159 148.426395,62.9721608 145.701214,62.9721608 Z M291.488866,62.9721608 C288.763685,62.9721608 286.695978,63.8011001 285.285745,65.4589786 C283.875511,67.1168571 283.170394,69.7751796 283.170394,73.4339459 L299.292794,73.4339459 C299.292794,69.6608431 298.673434,66.9739365 297.434716,65.3732262 C296.195997,63.7725159 294.214047,62.9721608 291.488866,62.9721608 Z M225.541393,52.5675439 L214.56444,52.5675439 L214.56444,72.176245 L225.541393,72.176245 C231.334785,72.176245 234.231481,68.7842637 234.231481,62.000301 C234.231481,58.7607682 233.545421,56.3787589 232.173302,54.8542729 C230.801183,53.3297869 228.590547,52.5675439 225.541393,52.5675439 Z M247.609642,49.1374504 L247.609642,53.4250673 L244.236516,53.4250673 L244.236516,49.1374504 L247.609642,49.1374504 Z M73.367507,22.3482168 C73.4151501,23.5119985 72.6630709,24.0190262 71.6489551,24.1517381 C70.434058,24.0938893 69.8385202,23.4167181 69.8419088,22.3312024 C69.8453264,21.3001326 70.5021195,20.6399758 71.5264445,20.6093499 C72.6392494,20.5719184 73.319864,21.2354781 73.367507,22.3482168 Z M72.3159574,21.027903 C72.0130839,21.027903 71.7646596,21.2763126 71.7646596,21.579168 C71.7646596,21.8820235 72.0130839,22.1304331 72.3159574,22.1304331 C72.6188309,22.1304331 72.8672553,21.8820235 72.8672553,21.579168 C72.8672553,21.2763126 72.622234,21.027903 72.3159574,21.027903 Z" id="Combined-Shape" fill="#09233C"></path>
            <path d="M58.9051619,18.8220944 C59.0608714,18.9531155 59.0174176,19.2151576 58.8291178,19.2862833 C57.6160329,19.7617026 53.5567249,21.0494524 51.0038149,18.2643191 C46.8105244,13.686069 56.9895742,17.2011768 58.9051619,18.818351 L58.9051619,18.8220944 Z" id="Path" fill="#FFCD05"></path>
        </g>
    </g>
</svg>