<?xml version="1.0" encoding="UTF-8"?>
<svg width="42px" height="42px" viewBox="0 0 42 42" version="1.1" xmlns="http://www.w3.org/2000/svg" xmlns:xlink="http://www.w3.org/1999/xlink">
    <title>whyus-2</title>
    <g id="whyus-2" stroke="none" stroke-width="1" fill="none" fill-rule="evenodd">
        <circle id="Oval" fill="#FCCE07" cx="25" cy="25" r="17"></circle>
        <g id="rewarded_ads_FILL0_wght300_GRAD0_opsz40" transform="translate(6.3335, 6.4999)" fill="#000000" fill-rule="nonzero">
            <path d="M14.166625,12.5619167 C15.1359861,12.5619167 15.9602361,12.2223472 16.639375,11.5432083 C17.3185139,10.8640972 17.6580833,10.0374861 17.6580833,9.063375 C17.6580833,8.08926389 17.3185139,7.26323611 16.639375,6.58529167 C15.9602361,5.90731944 15.1359861,5.56833333 14.166625,5.56833333 C13.1972639,5.56833333 12.3730139,5.90731944 11.693875,6.58529167 C11.0147361,7.26323611 10.6751667,8.08926389 10.6751667,9.063375 C10.6751667,10.0374861 11.0147361,10.8640972 11.693875,11.5432083 C12.3730139,12.2223472 13.1972639,12.5619167 14.166625,12.5619167 Z M7.34833333,28.33325 L7.34833333,26.2392917 L13.1196667,26.2392917 L13.1196667,20.0426667 C11.6410278,19.7584722 10.3354583,19.1295556 9.20295833,18.1559167 C8.07048611,17.18225 7.28701389,15.972125 6.85254167,14.5255417 C4.940875,14.3082917 3.320875,13.5287361 1.99254167,12.186875 C0.664180556,10.8450139 8.8817842e-16,9.23 8.8817842e-16,7.34183333 L8.8817842e-16,5.58541667 C8.8817842e-16,5.01636111 0.205347222,4.52511111 0.616041667,4.11166667 C1.02673611,3.69819444 1.519375,3.49145833 2.09395833,3.49145833 L6.45725,3.49145833 L6.45725,0 L21.876,0 L21.876,3.49145833 L26.2392917,3.49145833 C26.813875,3.49145833 27.3065139,3.69819444 27.7172083,4.11166667 C28.1279028,4.52511111 28.33325,5.01636111 28.33325,5.58541667 L28.33325,7.34183333 C28.33325,9.23 27.6690694,10.8450139 26.3407083,12.186875 C25.012375,13.5287361 23.392375,14.3082917 21.4807083,14.5255417 C21.0462361,15.972125 20.2627639,17.18225 19.1302917,18.1559167 C17.9977917,19.1295556 16.6922222,19.7584722 15.2135833,20.0426667 L15.2135833,26.2392917 L20.9849167,26.2392917 L20.9849167,28.33325 L7.34833333,28.33325 L7.34833333,28.33325 Z M6.45725,12.3076667 L6.45725,5.58541667 L2.09395833,5.58541667 L2.09395833,7.34183333 C2.09395833,8.59113889 2.50991667,9.67608333 3.34183333,10.5966667 C4.17375,11.51725 5.21222222,12.0875833 6.45725,12.3076667 L6.45725,12.3076667 Z M14.166625,18.0235 C15.7272917,18.0235 17.0480139,17.4795139 18.1287917,16.3915417 C19.2095694,15.3035694 19.7499583,13.9807361 19.7499583,12.4230417 L19.7499583,2.09395833 L8.58329167,2.09395833 L8.58329167,12.4230417 C8.58329167,13.9807361 9.12368056,15.3035694 10.2044583,16.3915417 C11.2852361,17.4795139 12.6059583,18.0235 14.166625,18.0235 Z M21.876,12.3076667 C23.1210278,12.0875833 24.1595,11.51725 24.9914167,10.5966667 C25.8233333,9.67608333 26.2392917,8.59113889 26.2392917,7.34183333 L26.2392917,5.58541667 L21.876,5.58541667 L21.876,12.3076667 Z" id="Shape"></path>
        </g>
    </g>
</svg>