<?xml version="1.0" encoding="UTF-8"?>
<svg width="42px" height="42px" viewBox="0 0 42 42" version="1.1" xmlns="http://www.w3.org/2000/svg" xmlns:xlink="http://www.w3.org/1999/xlink">
    <title>whyus-fast</title>
    <g id="whyus-fast" stroke="none" stroke-width="1" fill="none" fill-rule="evenodd">
        <circle id="Oval" fill="#FCCE07" cx="25" cy="25" r="17"></circle>
        <g id="hourglass_empty_FILL0_wght400_GRAD0_opsz24" transform="translate(11, 8)" fill="#000000" fill-rule="nonzero">
            <path d="M5,22.5 L15,22.5 L15,18.75 C15,17.375 14.5104167,16.1979167 13.53125,15.21875 C12.5520833,14.2395833 11.375,13.75 10,13.75 C8.625,13.75 7.44791667,14.2395833 6.46875,15.21875 C5.48958333,16.1979167 5,17.375 5,18.75 L5,22.5 Z M10,11.25 C11.375,11.25 12.5520833,10.7604167 13.53125,9.78125 C14.5104167,8.80208333 15,7.625 15,6.25 L15,2.5 L5,2.5 L5,6.25 C5,7.625 5.48958333,8.80208333 6.46875,9.78125 C7.44791667,10.7604167 8.625,11.25 10,11.25 Z M0,25 L0,22.5 L2.5,22.5 L2.5,18.75 C2.5,17.4791667 2.796875,16.2864583 3.390625,15.171875 C3.984375,14.0572917 4.8125,13.1666667 5.875,12.5 C4.8125,11.8333333 3.984375,10.9427083 3.390625,9.828125 C2.796875,8.71354167 2.5,7.52083333 2.5,6.25 L2.5,2.5 L0,2.5 L0,0 L20,0 L20,2.5 L17.5,2.5 L17.5,6.25 C17.5,7.52083333 17.203125,8.71354167 16.609375,9.828125 C16.015625,10.9427083 15.1875,11.8333333 14.125,12.5 C15.1875,13.1666667 16.015625,14.0572917 16.609375,15.171875 C17.203125,16.2864583 17.5,17.4791667 17.5,18.75 L17.5,22.5 L20,22.5 L20,25 L0,25 Z" id="Shape"></path>
        </g>
    </g>
</svg>